<?xml version="1.0" encoding="UTF-8"?>
<svg version="1.1" xmlns="http://www.w3.org/2000/svg" width="500" height="500">
<path d="M0 0 C165 0 330 0 500 0 C500 165 500 330 500 500 C335 500 170 500 0 500 C0 335 0 170 0 0 Z " fill="#000000" transform="translate(0,0)"/>
<path d="M0 0 C2.38797398 2.19512097 3.13086989 4.35637039 3.64453125 7.51171875 C11.12683354 8.25994898 15.510469 6.47026512 22.04296875 2.82421875 C24.64453125 1.51171875 24.64453125 1.51171875 27.64453125 1.51171875 C27.64453125 13.39171875 27.64453125 25.27171875 27.64453125 37.51171875 C14.07125109 44.29835883 14.07125109 44.29835883 7.70703125 44.07421875 C6.48113281 44.05488281 5.25523437 44.03554688 3.9921875 44.015625 C0.39112954 43.47357544 -1.61207558 42.91476615 -4.35546875 40.51171875 C-4.84375 37.8125 -4.84375 37.8125 -4.66796875 34.82421875 C-4.60029297 33.33341797 -4.60029297 33.33341797 -4.53125 31.8125 C-4.47324219 31.05324219 -4.41523438 30.29398438 -4.35546875 29.51171875 C-6.4600465 29.98907661 -8.56411797 30.46866704 -10.66796875 30.94921875 C-11.83972656 31.21605469 -13.01148438 31.48289063 -14.21875 31.7578125 C-17.35783846 32.46485844 -17.35783846 32.46485844 -20.35546875 33.51171875 C-20.02546875 32.19171875 -19.69546875 30.87171875 -19.35546875 29.51171875 C-16.88046875 29.01671875 -16.88046875 29.01671875 -14.35546875 28.51171875 C-14.68546875 25.87171875 -15.01546875 23.23171875 -15.35546875 20.51171875 C-17.99546875 21.17171875 -20.63546875 21.83171875 -23.35546875 22.51171875 C-23.35546875 21.85171875 -23.35546875 21.19171875 -23.35546875 20.51171875 C-21.70546875 19.85171875 -20.05546875 19.19171875 -18.35546875 18.51171875 C-19.01132064 14.90179496 -19.01132064 14.90179496 -20.35546875 11.51171875 C-22.99546875 11.84171875 -25.63546875 12.17171875 -28.35546875 12.51171875 C-26.3031319 10.26392125 -25.34879614 9.50949455 -22.35546875 8.51171875 C-22.68546875 6.20171875 -23.01546875 3.89171875 -23.35546875 1.51171875 C-25.99546875 2.17171875 -28.63546875 2.83171875 -31.35546875 3.51171875 C-30.35546875 -0.48828125 -30.35546875 -0.48828125 -28.78125 -1.53515625 C-19.29838139 -4.69026965 -8.67518281 -5.61714063 0 0 Z " fill="#AAABAB" transform="translate(133.35546875,219.48828125)"/>
<path d="M0 0 C6.6 0 13.2 0 20 0 C20 0.66 20 1.32 20 2 C20.598125 2.226875 21.19625 2.45375 21.8125 2.6875 C24.76738497 4.46043098 25.64499863 5.81574678 27 9 C27.72429496 13.72973338 27.46666938 17.06666125 25.3125 21.375 C22.50536457 24.56147806 20.38469969 26.70012758 16.04296875 27.24609375 C11.90812388 27.3765063 9.75786932 26.87893466 6 25 C6 28.63 6 32.26 6 36 C4.02 36 2.04 36 0 36 C0 24.12 0 12.24 0 0 Z " fill="#E3E4E4" transform="translate(382,241)"/>
<path d="M0 0 C4.3003125 -0.061875 4.3003125 -0.061875 8.6875 -0.125 C9.58170654 -0.14320801 10.47591309 -0.16141602 11.3972168 -0.18017578 C15.84706521 -0.21111563 18.85224285 0.29164733 23 2 C23.99 1.34 24.98 0.68 26 0 C29.39107371 -0.54602034 32.60874176 -0.54627924 36 0 C38.82424288 2.19022918 40.41508603 3.83017207 42 7 C42.08372659 8.52148326 42.10730027 10.04655778 42.09765625 11.5703125 C42.09443359 12.46621094 42.09121094 13.36210937 42.08789062 14.28515625 C42.07532227 15.69087891 42.07532227 15.69087891 42.0625 17.125 C42.05798828 18.06988281 42.05347656 19.01476562 42.04882812 19.98828125 C42.03702357 22.32558387 42.02055759 24.66276061 42 27 C40.33388095 27.042721 38.66617115 27.04063832 37 27 C35.45429669 25.45429669 35.80175898 23.9306528 35.71875 21.78125 C35.66267578 20.50701172 35.66267578 20.50701172 35.60546875 19.20703125 C35.53515625 17.40234375 35.46484375 15.59765625 35.39453125 13.79296875 C35.33845703 12.51873047 35.33845703 12.51873047 35.28125 11.21875 C35.25095703 10.43435547 35.22066406 9.64996094 35.18945312 8.84179688 C35.19408532 6.98373804 35.19408532 6.98373804 34 6 C32.12678052 5.83946185 32.12678052 5.83946185 30 5.875 C29.278125 5.87242187 28.55625 5.86984375 27.8125 5.8671875 C25.97910585 5.80304724 25.97910585 5.80304724 25 7 C24.84379445 8.41327947 24.74943827 9.8335459 24.68359375 11.25390625 C24.64169922 12.10791016 24.59980469 12.96191406 24.55664062 13.84179688 C24.51732422 14.73962891 24.47800781 15.63746094 24.4375 16.5625 C24.39431641 17.46419922 24.35113281 18.36589844 24.30664062 19.29492188 C24.20021858 21.52978485 24.09820012 23.76476308 24 26 C22.34385343 26.38218767 20.67542976 26.71395102 19 27 C17.45798861 25.45798861 17.81986932 23.96120553 17.75390625 21.81640625 C17.72103516 20.97142578 17.68816406 20.12644531 17.65429688 19.25585938 C17.59323634 17.46431719 17.53592743 15.6726431 17.48242188 13.88085938 C17.43118164 12.61145508 17.43118164 12.61145508 17.37890625 11.31640625 C17.3538501 10.53724854 17.32879395 9.75809082 17.30297852 8.95532227 C17.16100385 6.76734161 17.16100385 6.76734161 15 5 C11.41656024 4.83322718 11.41656024 4.83322718 8 5 C7.24632324 7.72673843 6.84365658 10.25020055 6.71875 13.07421875 C6.68136719 13.82380859 6.64398438 14.57339844 6.60546875 15.34570312 C6.53462953 16.91859616 6.4643248 18.49151335 6.39453125 20.06445312 C6.10210276 25.89789724 6.10210276 25.89789724 5 27 C3.35 27 1.7 27 0 27 C0 18.09 0 9.18 0 0 Z " fill="#DDDDDD" transform="translate(334,241)"/>
<path d="M0 0 C0 9.57 0 19.14 0 29 C-0.99 29.33 -1.98 29.66 -3 30 C-3.33 30.99 -3.66 31.98 -4 33 C-9.96674616 34.32594359 -15.92583615 34.0884587 -22 34 C-22.495 32.515 -22.495 32.515 -23 31 C-20.03 28.525 -20.03 28.525 -17 26 C-17.20496094 24.99839844 -17.40992188 23.99679688 -17.62109375 22.96484375 C-17.89333412 21.62241711 -18.1654636 20.27996799 -18.4375 18.9375 C-18.57220703 18.28072266 -18.70691406 17.62394531 -18.84570312 16.94726562 C-19.71470632 12.64464005 -20.4172492 8.35082876 -21 4 C-20.13117188 3.96261719 -19.26234375 3.92523438 -18.3671875 3.88671875 C-12.15002121 3.53204819 -5.49701676 0 0 0 Z " fill="#7B7B7B" transform="translate(158,226)"/>
<path d="M0 0 C2.38797398 2.19512097 3.13086989 4.35637039 3.64453125 7.51171875 C11.12683354 8.25994898 15.510469 6.47026512 22.04296875 2.82421875 C24.64453125 1.51171875 24.64453125 1.51171875 27.64453125 1.51171875 C27.64453125 13.39171875 27.64453125 25.27171875 27.64453125 37.51171875 C14.07125109 44.29835883 14.07125109 44.29835883 7.70703125 44.07421875 C6.48113281 44.05488281 5.25523437 44.03554688 3.9921875 44.015625 C0.39112954 43.47357544 -1.61207558 42.91476615 -4.35546875 40.51171875 C-4.84375 37.8125 -4.84375 37.8125 -4.66796875 34.82421875 C-4.60029297 33.33341797 -4.60029297 33.33341797 -4.53125 31.8125 C-4.47324219 31.05324219 -4.41523438 30.29398438 -4.35546875 29.51171875 C-7.32546875 29.51171875 -10.29546875 29.51171875 -13.35546875 29.51171875 C-13.02546875 28.85171875 -12.69546875 28.19171875 -12.35546875 27.51171875 C-10.28125 27.0625 -10.28125 27.0625 -7.66796875 26.82421875 C-6.39373047 26.69466797 -6.39373047 26.69466797 -5.09375 26.5625 C-2.0675784 26.50637984 0.67901995 26.9342473 3.64453125 27.51171875 C3.18991022 25.15678183 2.73093625 22.8028279 2.26953125 20.44921875 C2.14320313 19.79244141 2.016875 19.13566406 1.88671875 18.45898438 C0.8170051 13.0301876 -0.60446493 7.7647302 -2.35546875 2.51171875 C-6.41629664 0.26335077 -10.62440892 0.09541815 -15.16796875 -0.11328125 C-15.86083984 -0.15195313 -16.55371094 -0.190625 -17.26757812 -0.23046875 C-18.9631389 -0.32401693 -20.65926587 -0.40720489 -22.35546875 -0.48828125 C-22.35546875 0.17171875 -22.35546875 0.83171875 -22.35546875 1.51171875 C-25.32546875 2.17171875 -28.29546875 2.83171875 -31.35546875 3.51171875 C-30.35546875 -0.48828125 -30.35546875 -0.48828125 -28.78125 -1.53515625 C-19.29838139 -4.69026965 -8.67518281 -5.61714063 0 0 Z M20.33203125 7.94921875 C15.28876309 10.62884995 9.22423843 10.27164233 3.64453125 10.51171875 C4.31760583 15.53690666 5.1885197 20.4833658 6.20703125 25.44921875 C6.34560547 26.13306641 6.48417969 26.81691406 6.62695312 27.52148438 C6.96436189 29.18525861 7.30419004 30.8485419 7.64453125 32.51171875 C5.66453125 34.16171875 3.68453125 35.81171875 1.64453125 37.51171875 C1.97453125 38.50171875 2.30453125 39.49171875 2.64453125 40.51171875 C9.34971711 40.70990158 15.29629923 40.82016676 21.64453125 38.51171875 C21.64453125 37.85171875 21.64453125 37.19171875 21.64453125 36.51171875 C22.63453125 36.18171875 23.62453125 35.85171875 24.64453125 35.51171875 C24.64453125 25.94171875 24.64453125 16.37171875 24.64453125 6.51171875 C22.47381342 6.33574071 22.47381342 6.33574071 20.33203125 7.94921875 Z " fill="#C8C9C9" transform="translate(133.35546875,219.48828125)"/>
<path d="M0 0 C3 1.8125 3 1.8125 4.0625 4.375 C4 6.8125 4 6.8125 2 8.8125 C-1.24047899 8.43570012 -4.37057903 7.73448336 -7.5625 7.0625 C-11.65246458 6.76504803 -12.85697131 7.24517459 -16 9.8125 C-17.03527642 12.97829014 -17.03527642 12.97829014 -17.3125 16.5 C-17.45300781 17.67949219 -17.59351563 18.85898438 -17.73828125 20.07421875 C-17.82464844 20.97785156 -17.91101563 21.88148438 -18 22.8125 C-17.34 22.8125 -16.68 22.8125 -16 22.8125 C-15.34 23.8025 -14.68 24.7925 -14 25.8125 C-11.76898284 26.21593132 -11.76898284 26.21593132 -9.25 26.0625 C-8.35667969 26.03929687 -7.46335938 26.01609375 -6.54296875 25.9921875 C-3.83717036 25.84746177 -3.83717036 25.84746177 -0.5625 25.1875 C2 24.8125 2 24.8125 5 26.8125 C4.9375 28.5625 4.9375 28.5625 4 30.8125 C-1.70890225 35.28033654 -6.90179128 35.64188099 -14 34.8125 C-19.64457857 33.29280577 -22.52531405 29.37460369 -25.62890625 24.6328125 C-27.91325725 19.93394806 -28.18904245 15.87918408 -27 10.8125 C-24.4896033 5.40200603 -20.6021767 1.77872568 -15.140625 -0.56640625 C-9.97003685 -2.06663164 -5.05711521 -1.79946431 0 0 Z " fill="#EAEBEB" transform="translate(202,233.1875)"/>
<path d="M0 0 C8.25 0 16.5 0 25 0 C25 2.31 25 4.62 25 7 C19.39 7 13.78 7 8 7 C8 9.97 8 12.94 8 16 C13.28 16 18.56 16 24 16 C24 18.31 24 20.62 24 23 C19.05 23 14.1 23 9 23 C9.020625 24.959375 9.04125 26.91875 9.0625 28.9375 C9.08377188 30.95832876 9.07244053 32.98035801 9 35 C8.505 35.495 8.505 35.495 8 36 C5.36 36 2.72 36 0 36 C0 24.12 0 12.24 0 0 Z " fill="#E8E8E8" transform="translate(242,232)"/>
<path d="M0 0 C0.99 0 1.98 0 3 0 C5.97914264 6.82848159 8.9012207 13.64130971 11.5 20.625 C12.32817323 22.75201635 13.16138085 24.87708046 14 27 C14.36867188 27.98613281 14.73734375 28.97226563 15.1171875 29.98828125 C18.48863857 37.89339168 23.56497404 42.84659671 29.97021484 48.36889648 C30.61684082 48.92907471 31.2634668 49.48925293 31.9296875 50.06640625 C32.81503174 50.8080603 32.81503174 50.8080603 33.71826172 51.56469727 C35 53 35 53 35 56 C33.02 56 31.04 56 29 56 C29.495 56.9075 29.99 57.815 30.5 58.75 C32 62 32 62 32 66 C28.535 66.495 28.535 66.495 25 67 C24.01 63.535 24.01 63.535 23 60 C22.236875 60.680625 21.47375 61.36125 20.6875 62.0625 C19.800625 62.701875 18.91375 63.34125 18 64 C16.515 63.505 16.515 63.505 15 63 C15.02525757 62.05253906 15.02525757 62.05253906 15.05102539 61.0859375 C15.37201624 42.42477334 11.42222302 27.79045815 3.58789062 10.96777344 C3.13091797 9.98583008 2.67394531 9.00388672 2.203125 7.9921875 C1.57132324 6.66356689 1.57132324 6.66356689 0.92675781 5.30810547 C0 3 0 3 0 0 Z " fill="#D3D4D4" transform="translate(94,218)"/>
<path d="M0 0 C10.23 0 20.46 0 31 0 C31 1.98 31 3.96 31 6 C30.67 6.33 30.34 6.66 30 7 C26.37 7 22.74 7 19 7 C19 16.57 19 26.14 19 36 C16.36 36 13.72 36 11 36 C11 26.76 11 17.52 11 8 C7.37 8 3.74 8 0 8 C0 5.36 0 2.72 0 0 Z " fill="#F4F4F4" transform="translate(209,232)"/>
<path d="M0 0 C0.33 0.66 0.66 1.32 1 2 C1.66 2.309375 2.32 2.61875 3 2.9375 C5 4 5 4 6 7 C6.08106686 8.55421729 6.10756898 10.11167027 6.09765625 11.66796875 C6.09443359 12.56064453 6.09121094 13.45332031 6.08789062 14.37304688 C6.07951172 15.30181641 6.07113281 16.23058594 6.0625 17.1875 C6.05798828 18.12787109 6.05347656 19.06824219 6.04882812 20.03710938 C6.03704626 22.35813712 6.02059558 24.67903644 6 27 C4.88625 26.979375 3.7725 26.95875 2.625 26.9375 C-0.83215921 26.73619282 -0.83215921 26.73619282 -3 28 C-9.99869622 28.68839635 -9.99869622 28.68839635 -14 25.9375 C-16.50639423 22.25623347 -16.71525283 20.37098953 -16 16 C-14.38671875 13.80078125 -14.38671875 13.80078125 -12 12 C-8.765625 11.609375 -8.765625 11.609375 -5.25 11.75 C-4.07953125 11.78609375 -2.9090625 11.8221875 -1.703125 11.859375 C-0.81109375 11.90578125 0.0809375 11.9521875 1 12 C0.34 10.35 -0.32 8.7 -1 7 C-5.97063121 6.08702692 -10.02936879 6.08702692 -15 7 C-14.67 5.35 -14.34 3.7 -14 2 C-9.07262981 0.02905192 -5.21979128 -0.1799928 0 0 Z " fill="#E3E3E3" transform="translate(321,240)"/>
<path d="M0 0 C1.91796875 1.3828125 1.91796875 1.3828125 4.79296875 3.8828125 C4.13296875 5.2028125 3.47296875 6.5228125 2.79296875 7.8828125 C1.47296875 7.5528125 0.15296875 7.2228125 -1.20703125 6.8828125 C-1.20703125 6.2228125 -1.20703125 5.5628125 -1.20703125 4.8828125 C-6.24599708 4.524309 -10.08465263 4.34166567 -14.70703125 6.5703125 C-17.45461643 9.11182879 -18.47611552 10.22823387 -19.20703125 13.8828125 C-19.26661975 18.5562537 -18.83193444 21.91522047 -16.26953125 25.8828125 C-12.76563037 29.28053456 -10.1009295 29.14742698 -5.40625 29.1171875 C-2.62146574 28.82040765 -1.13374072 27.89329195 0.79296875 25.8828125 C2.11296875 26.5428125 3.43296875 27.2028125 4.79296875 27.8828125 C4.79296875 28.8728125 4.79296875 29.8628125 4.79296875 30.8828125 C-1.25975031 34.46960898 -6.14788991 36.14897595 -13.20703125 34.8828125 C-17.91355417 33.12797492 -21.18016542 30.55106374 -23.70703125 26.1953125 C-25.99574762 20.7698286 -26.28083756 15.22481931 -24.4765625 9.609375 C-22.51819511 5.30896009 -20.28168122 2.42946873 -16.20703125 -0.1171875 C-11.05383091 -1.71196739 -4.92382904 -2.49241612 0 0 Z " fill="#E5E6E6" transform="translate(296.20703125,233.1171875)"/>
<path d="M0 0 C0.33 0.99 0.66 1.98 1 3 C1.99 2.34 2.98 1.68 4 1 C6.6875 0.875 6.6875 0.875 9 1 C9.66 3.31 10.32 5.62 11 8 C9.02 8.99 7.04 9.98 5 11 C8.465 10.505 8.465 10.505 12 10 C15.07692308 14.43076923 15.07692308 14.43076923 14.6875 17.3125 C14.460625 17.869375 14.23375 18.42625 14 19 C12.35 19.33 10.7 19.66 9 20 C9 20.66 9 21.32 9 22 C9.5775 21.67 10.155 21.34 10.75 21 C13 20 13 20 17 20 C17.33 22.64 17.66 25.28 18 28 C17.195625 28.268125 16.39125 28.53625 15.5625 28.8125 C14.716875 29.204375 13.87125 29.59625 13 30 C12.67 30.99 12.34 31.98 12 33 C12.66 33.33 13.32 33.66 14 34 C13.34 34 12.68 34 12 34 C11.67 34.66 11.34 35.32 11 36 C5.80098945 24.96039888 1.26754821 13.76848664 -2 2 C-1.34 1.34 -0.68 0.68 0 0 Z " fill="#111111" transform="translate(101,220)"/>
<path d="M0 0 C2.38797398 2.19512097 3.13086989 4.35637039 3.64453125 7.51171875 C10.67019754 8.08759304 14.99905925 6.81708901 21.26171875 3.60546875 C23.64453125 2.51171875 23.64453125 2.51171875 26.64453125 2.51171875 C26.64453125 13.73171875 26.64453125 24.95171875 26.64453125 36.51171875 C26.31453125 36.51171875 25.98453125 36.51171875 25.64453125 36.51171875 C24.7676654 29.77987462 24.52065928 23.23318195 24.58203125 16.44921875 C24.58654297 15.48822266 24.59105469 14.52722656 24.59570312 13.53710938 C24.60735419 11.19524453 24.623711 8.85351694 24.64453125 6.51171875 C24.14824219 6.79756836 23.65195313 7.08341797 23.140625 7.37792969 C18.46009085 9.92025018 15.08200386 10.98828011 9.64453125 10.76171875 C8.51015625 10.725625 7.37578125 10.68953125 6.20703125 10.65234375 C5.36140625 10.6059375 4.51578125 10.55953125 3.64453125 10.51171875 C3.89009766 11.38570312 3.89009766 11.38570312 4.140625 12.27734375 C4.83788865 15.36908643 4.70524541 18.35458268 4.64453125 21.51171875 C3.98453125 21.51171875 3.32453125 21.51171875 2.64453125 21.51171875 C2.52335937 20.94324219 2.4021875 20.37476563 2.27734375 19.7890625 C1.0048689 13.92588993 -0.45684 8.20760501 -2.35546875 2.51171875 C-6.41629664 0.26335077 -10.62440892 0.09541815 -15.16796875 -0.11328125 C-15.86083984 -0.15195313 -16.55371094 -0.190625 -17.26757812 -0.23046875 C-18.9631389 -0.32401693 -20.65926587 -0.40720489 -22.35546875 -0.48828125 C-22.35546875 0.17171875 -22.35546875 0.83171875 -22.35546875 1.51171875 C-25.32546875 2.17171875 -28.29546875 2.83171875 -31.35546875 3.51171875 C-30.35546875 -0.48828125 -30.35546875 -0.48828125 -28.78125 -1.53515625 C-19.29838139 -4.69026965 -8.67518281 -5.61714063 0 0 Z " fill="#E1E2E2" transform="translate(133.35546875,219.48828125)"/>
<path d="M0 0 C2.37570543 -0.0816082 4.74855841 -0.14077222 7.125 -0.1875 C7.79015625 -0.21263672 8.4553125 -0.23777344 9.140625 -0.26367188 C13.84305576 -0.33282527 17.11739816 0.30111823 21 3 C21.8046875 5.26171875 21.8046875 5.26171875 21.875 7.6875 C21.91367188 8.49574219 21.95234375 9.30398437 21.9921875 10.13671875 C21.99605469 11.05904297 21.99605469 11.05904297 22 12 C20.02 11.34 18.04 10.68 16 10 C16.33 12.31 16.66 14.62 17 17 C16.34 17 15.68 17 15 17 C14.34 15.02 13.68 13.04 13 11 C10.03 10.67 7.06 10.34 4 10 C4.99 12.64 5.98 15.28 7 18 C6.34 18 5.68 18 5 18 C4.01 16.02 3.02 14.04 2 12 C-0.64 12.33 -3.28 12.66 -6 13 C-3.94766315 10.7522025 -2.99332739 9.9977758 0 9 C-0.185625 7.88625 -0.37125 6.7725 -0.5625 5.625 C-1 2 -1 2 0 0 Z " fill="#949494" transform="translate(111,219)"/>
<path d="M0 0 C3.3 0 6.6 0 10 0 C10 2.64 10 5.28 10 8 C8.68 8.33 7.36 8.66 6 9 C7.32 9.33 8.64 9.66 10 10 C10 12.97 10 15.94 10 19 C8.35 19 6.7 19 5 19 C5 19.66 5 20.32 5 21 C6.65 21 8.3 21 10 21 C10 23.64 10 26.28 10 29 C6.04 29 2.08 29 -2 29 C-2.33 28.01 -2.66 27.02 -3 26 C-0.03 23.525 -0.03 23.525 3 21 C2.7834375 19.98679688 2.566875 18.97359375 2.34375 17.9296875 C2.06218801 16.57818996 1.7809555 15.22662375 1.5 13.875 C1.35691406 13.20984375 1.21382812 12.5446875 1.06640625 11.859375 C0.2387717 7.83943578 -0.15330658 4.10095101 0 0 Z " fill="#0F0F0F" transform="translate(138,231)"/>
<path d="M0 0 C0.90105469 0.02707031 1.80210937 0.05414063 2.73046875 0.08203125 C3.76107422 0.13423828 3.76107422 0.13423828 4.8125 0.1875 C6.99451725 4.12214156 7.66632841 7.74231087 6.8125 12.1875 C4.35087655 15.6627331 2.93524796 16.95836776 -1.25 17.8125 C-4.1875 17.1875 -4.1875 17.1875 -6.5625 15.25 C-8.67617614 11.26653342 -9.10972333 7.62414198 -8.1875 3.1875 C-5.91262898 -0.14356114 -3.87477105 -0.15096511 0 0 Z " fill="#111111" transform="translate(396.1875,245.8125)"/>
<path d="M0 0 C0.99 0 1.98 0 3 0 C6.46482119 7.94170356 9.77428993 15.89730248 12.828125 24.0078125 C14.20101107 27.51324826 15.75305494 30.90800234 17.3984375 34.29296875 C17.69621094 35.13794922 17.69621094 35.13794922 18 36 C17.67 36.66 17.34 37.32 17 38 C16.84693099 39.81171098 16.75053339 41.6283794 16.68359375 43.4453125 C16.64169922 44.52167969 16.59980469 45.59804688 16.55664062 46.70703125 C16.51732422 47.83496094 16.47800781 48.96289062 16.4375 50.125 C16.39431641 51.26066406 16.35113281 52.39632812 16.30664062 53.56640625 C16.2003396 56.37747768 16.09830595 59.18863945 16 62 C17.485 62.495 17.485 62.495 19 63 C17.68 63 16.36 63 15 63 C15.02525757 62.05253906 15.02525757 62.05253906 15.05102539 61.0859375 C15.37201624 42.42477334 11.42222302 27.79045815 3.58789062 10.96777344 C3.13091797 9.98583008 2.67394531 9.00388672 2.203125 7.9921875 C1.57132324 6.66356689 1.57132324 6.66356689 0.92675781 5.30810547 C0 3 0 3 0 0 Z " fill="#CFD0D0" transform="translate(94,218)"/>
<path d="M0 0 C-0.33 0.33 -0.66 0.66 -1 1 C-1.23075082 2.34747084 -1.41153063 3.70377565 -1.5625 5.0625 C-1.706875 6.361875 -1.85125 7.66125 -2 9 C0.64 8.01 3.28 7.02 6 6 C6 9.3 6 12.6 6 16 C5.01 16.33 4.02 16.66 3 17 C2.67 17.99 2.34 18.98 2 20 C0.02 20 -1.96 20 -4 20 C-4 17.69 -4 15.38 -4 13 C-5.65 13 -7.3 13 -9 13 C-9 12.34 -9 11.68 -9 11 C-7.35 11 -5.7 11 -4 11 C-4 8.03 -4 5.06 -4 2 C-5.98 2 -7.96 2 -10 2 C-6.86358686 -1.13641314 -4.14410883 -1.38136961 0 0 Z " fill="#8E8F8F" transform="translate(152,239)"/>
<path d="M0 0 C1.77586005 3.5517201 2.48627846 5.91767077 3.125 9.75 C3.29257813 10.73484375 3.46015625 11.7196875 3.6328125 12.734375 C3.75398438 13.48203125 3.87515625 14.2296875 4 15 C2.68 15.33 1.36 15.66 0 16 C0 15.01 0 14.02 0 13 C-0.4125 13.804375 -0.825 14.60875 -1.25 15.4375 C-3 18 -3 18 -5.1875 18.8125 C-5.785625 18.874375 -6.38375 18.93625 -7 19 C-6.96877057 20.96756452 -6.96877057 20.96756452 -6 23 C-3.00384054 24.3045656 -3.00384054 24.3045656 0 25 C-2.6628587 26.08486836 -3.94063064 26.01619164 -6.75 25.25 C-9 23 -9 23 -9.31640625 20.34765625 C-9.31280444 17.54904715 -9.21315927 14.79001803 -9 12 C-11.97 12 -14.94 12 -18 12 C-17.67 11.34 -17.34 10.68 -17 10 C-11.64996832 8.84133024 -6.33367897 8.73676024 -1 10 C-0.67 6.7 -0.34 3.4 0 0 Z " fill="#D1D1D2" transform="translate(138,237)"/>
<path d="M0 0 C2.64 0.33 5.28 0.66 8 1 C7.52433594 2.45599609 7.52433594 2.45599609 7.0390625 3.94140625 C5.8063663 8.25584296 5.55865405 12.47241088 5.375 16.9375 C5.33632813 17.71673828 5.29765625 18.49597656 5.2578125 19.29882812 C5.16455873 21.19887379 5.08124038 23.09940278 5 25 C3.35 25 1.7 25 0 25 C0 16.75 0 8.5 0 0 Z " fill="#EBECEC" transform="translate(335,242)"/>
<path d="M0 0 C5.66884176 2.2675367 5.66884176 2.2675367 8.3125 5 C8.82425781 5.515625 9.33601563 6.03125 9.86328125 6.5625 C11 8 11 8 11 10 C10.01 10 9.02 10 8 10 C8.33 10.886875 8.66 11.77375 9 12.6875 C9.91222143 15.70923347 10.18330958 17.88373706 10 21 C9.34 20.67 8.68 20.34 8 20 C7.26924352 17.6859378 6.59861742 15.35171131 6 13 C4.02 13.66 2.04 14.32 0 15 C0 10.05 0 5.1 0 0 Z " fill="#131313" transform="translate(112,261)"/>
<path d="M0 0 C0.33 0.99 0.66 1.98 1 3 C1.99 2.34 2.98 1.68 4 1 C6.6875 0.875 6.6875 0.875 9 1 C9.66 3.31 10.32 5.62 11 8 C9.02 8.99 7.04 9.98 5 11 C6.32 11.33 7.64 11.66 9 12 C7.35 12.33 5.7 12.66 4 13 C3.67 14.32 3.34 15.64 3 17 C2.10627207 14.9246318 1.23558304 12.83932994 0.375 10.75 C-0.11226563 9.58984375 -0.59953125 8.4296875 -1.1015625 7.234375 C-2 4 -2 4 -1.1484375 1.578125 C-0.76945312 1.05734375 -0.39046875 0.5365625 0 0 Z " fill="#181818" transform="translate(101,220)"/>
<path d="M0 0 C10.23 0 20.46 0 31 0 C31 1.98 31 3.96 31 6 C30 7 30 7 27.49609375 7.09765625 C25.98208984 7.08025391 25.98208984 7.08025391 24.4375 7.0625 C23.42558594 7.05347656 22.41367188 7.04445312 21.37109375 7.03515625 C20.19740234 7.01775391 20.19740234 7.01775391 19 7 C19 6.67 19 6.34 19 6 C21.97 6 24.94 6 28 6 C28 4.68 28 3.36 28 2 C19.09 2 10.18 2 1 2 C1 3.32 1 4.64 1 6 C4.3 6 7.6 6 11 6 C11 6.66 11 7.32 11 8 C7.37 8 3.74 8 0 8 C0 5.36 0 2.72 0 0 Z " fill="#AFB0B1" transform="translate(209,232)"/>
<path d="M0 0 C3.3 0 6.6 0 10 0 C10 2.64 10 5.28 10 8 C3.9453125 8.1953125 3.9453125 8.1953125 2 8 C0 6 0 6 -0.125 2.875 C-0.08375 1.92625 -0.0425 0.9775 0 0 Z " fill="#0B0B0B" transform="translate(138,231)"/>
<path d="M0 0 C2.64 0 5.28 0 8 0 C9.25664978 2.90600261 10 4.79604584 10 8 C8.54257537 8.08096803 7.08387193 8.13917774 5.625 8.1875 C4.81289062 8.22230469 4.00078125 8.25710937 3.1640625 8.29296875 C2.44992188 8.19628906 1.73578125 8.09960938 1 8 C-1 5 -1 5 -0.625 2.3125 C-0.41875 1.549375 -0.2125 0.78625 0 0 Z " fill="#131313" transform="translate(113,219)"/>
<path d="M0 0 C1.37478516 0.01740234 1.37478516 0.01740234 2.77734375 0.03515625 C3.69644531 0.04417969 4.61554688 0.05320313 5.5625 0.0625 C6.27277344 0.07410156 6.98304688 0.08570313 7.71484375 0.09765625 C7.90234375 2.47265625 7.90234375 2.47265625 7.71484375 5.09765625 C4.04137604 7.54663472 2.05127976 7.41303341 -2.28515625 7.09765625 C-2.94515625 6.43765625 -3.60515625 5.77765625 -4.28515625 5.09765625 C-3.53567763 0.15109733 -3.53567763 0.15109733 0 0 Z " fill="#171717" transform="translate(314.28515625,255.90234375)"/>
<path d="M0 0 C1.1446875 0.0928125 1.1446875 0.0928125 2.3125 0.1875 C2.3125 2.8275 2.3125 5.4675 2.3125 8.1875 C-1.6475 8.1875 -5.6075 8.1875 -9.6875 8.1875 C-10.0175 7.1975 -10.3475 6.2075 -10.6875 5.1875 C-9.924375 4.919375 -9.16125 4.65125 -8.375 4.375 C-5.68251525 3.39836251 -5.68251525 3.39836251 -4.1875 1.5625 C-2.6875 0.1875 -2.6875 0.1875 0 0 Z " fill="#0F0F0F" transform="translate(145.6875,251.8125)"/>
<path d="M0 0 C2.97 0 5.94 0 9 0 C11 4 11 4 11 8 C8.36 8 5.72 8 3 8 C0 2.25 0 2.25 0 0 Z " fill="#151515" transform="translate(115,229)"/>
<path d="M0 0 C5.05291204 3.5357846 9.45665819 6.90644615 13 12 C13 13.32 13 14.64 13 16 C11.35 16 9.7 16 8 16 C8.99 15.67 9.98 15.34 11 15 C10.11362622 13.88822533 9.2153535 12.78593386 8.3125 11.6875 C7.81363281 11.07261719 7.31476563 10.45773437 6.80078125 9.82421875 C4.68361051 7.52818969 4.68361051 7.52818969 0 5 C0 9.95 0 14.9 0 20 C0.66 20.33 1.32 20.66 2 21 C1.01 21 0.02 21 -1 21 C-1.0270203 18.24993392 -1.04684883 15.50013454 -1.0625 12.75 C-1.07087891 11.97269531 -1.07925781 11.19539063 -1.08789062 10.39453125 C-1.09111328 9.64042969 -1.09433594 8.88632812 -1.09765625 8.109375 C-1.10289307 7.41811523 -1.10812988 6.72685547 -1.11352539 6.01464844 C-0.99437971 3.90026102 -0.57618237 2.03358485 0 0 Z " fill="#CACACA" transform="translate(112,256)"/>
<path d="M0 0 C0.43518641 5.30927425 0.43518641 5.30927425 0 8 C-2.83653151 10.45321644 -4.25123496 11 -8 11 C-8.43518641 5.69072575 -8.43518641 5.69072575 -8 3 C-5.16346849 0.54678356 -3.74876504 0 0 0 Z " fill="#171717" transform="translate(158,237)"/>
<path d="M0 0 C2.31 0 4.62 0 7 0 C8.25664978 2.90600261 9 4.79604584 9 8 C6.36 8 3.72 8 1 8 C-0.42944945 5.64561267 -1.08661261 4.51967567 -0.625 1.75 C-0.41875 1.1725 -0.2125 0.595 0 0 Z " fill="#1D1D1D" transform="translate(120,238)"/>
<path d="M0 0 C0.3125 3.3125 0.3125 3.3125 0 7 C-2.84260487 9.38164192 -4.28405267 10 -8 10 C-8.3125 6.6875 -8.3125 6.6875 -8 3 C-5.15739513 0.61835808 -3.71594733 0 0 0 Z " fill="#181818" transform="translate(158,248)"/>
<path d="M0 0 C5.625 -0.25 5.625 -0.25 9 2 C9.6875 5.125 9.6875 5.125 10 8 C4.55414013 8.36305732 4.55414013 8.36305732 2.1875 6.8125 C0.72461964 4.57968261 0.35494045 2.62655933 0 0 Z " fill="#1F1F1F" transform="translate(123,220)"/>
<path d="M0 0 C0 0.33 0 0.66 0 1 C-1.65 1.33 -3.3 1.66 -5 2 C-5 2.33 -5 2.66 -5 3 C-8.3 3 -11.6 3 -15 3 C-15 3.66 -15 4.32 -15 5 C-17.97 5.66 -20.94 6.32 -24 7 C-23 3 -23 3 -21.42578125 1.953125 C-14.30588684 -0.41578627 -7.44563687 -0.28596329 0 0 Z " fill="#C7C8C8" transform="translate(126,216)"/>
<path d="M0 0 C5.61 0 11.22 0 17 0 C17 0.33 17 0.66 17 1 C12.05 1.33 7.1 1.66 2 2 C2 3.65 2 5.3 2 7 C2.90492188 6.96519531 2.90492188 6.96519531 3.828125 6.9296875 C5.02695313 6.90261719 5.02695313 6.90261719 6.25 6.875 C7.03890625 6.85179687 7.8278125 6.82859375 8.640625 6.8046875 C11 7 11 7 15 9 C10.05 9 5.1 9 0 9 C0 6.03 0 3.06 0 0 Z " fill="#555555" transform="translate(250,239)"/>
<path d="M0 0 C0.43695709 5.33087655 0.43695709 5.33087655 0 8 C-2.40859879 10.02829372 -3.83044309 11 -7 11 C-7.3125 7.75 -7.3125 7.75 -7 4 C-3.1025641 0 -3.1025641 0 0 0 Z " fill="#111111" transform="translate(158,226)"/>
<path d="M0 0 C14.48013065 -0.78388677 14.48013065 -0.78388677 20 4 C21.12833913 6.39515625 21.5418523 8.35292438 22 11 C20.68 11.33 19.36 11.66 18 12 C17.87625 10.906875 17.7525 9.81375 17.625 8.6875 C17.1697241 6.70717033 17.1697241 6.70717033 16 5 C11.12418573 2.50890217 5.38702844 1.70881953 0 1 C0 0.67 0 0.34 0 0 Z " fill="#E7E7E8" transform="translate(115,217)"/>
<path d="M0 0 C0.99 0 1.98 0 3 0 C3 11.88 3 23.76 3 36 C1.68 36.66 0.36 37.32 -1 38 C-1 37.34 -1 36.68 -1 36 C-1.66 35.67 -2.32 35.34 -3 35 C-2.01 34.505 -2.01 34.505 -1 34 C-0.53476937 32.10466658 -0.53476937 32.10466658 -0.375 29.9375 C-0.25125 28.638125 -0.1275 27.33875 0 26 C0.33 26 0.66 26 1 26 C1.33 17.75 1.66 9.5 2 1 C1.34 0.67 0.68 0.34 0 0 Z " fill="#C2C3C3" transform="translate(158,221)"/>
<path d="M0 0 C0.99 0.99 1.98 1.98 3 3 C2.67 3.66 2.34 4.32 2 5 C1.76725791 7.87910588 1.58027243 10.74146495 1.4375 13.625 C1.39431641 14.42679687 1.35113281 15.22859375 1.30664062 16.0546875 C1.20048543 18.0362511 1.09973145 20.01810271 1 22 C1.99 22 2.98 22 4 22 C4.33 21.01 4.66 20.02 5 19 C5.99 19 6.98 19 8 19 C8 20.32 8 21.64 8 23 C4.91190305 24.76462683 3.76687864 25 0 25 C0 16.75 0 8.5 0 0 Z " fill="#EEEFEF" transform="translate(110,255)"/>
<path d="M0 0 C0.66 0.66 1.32 1.32 2 2 C4.60280568 1.67958603 4.60280568 1.67958603 7 1 C7 2.32 7 3.64 7 5 C6.34 5.66 5.68 6.32 5 7 C4.01 7 3.02 7 2 7 C2.03122943 8.96756452 2.03122943 8.96756452 3 11 C5.99615946 12.3045656 5.99615946 12.3045656 9 13 C6.3371413 14.08486836 5.05936936 14.01619164 2.25 13.25 C0 11 0 11 -0.31640625 8.34765625 C-0.31280444 5.54904715 -0.21315927 2.79001803 0 0 Z " fill="#A8A9A9" transform="translate(129,249)"/>
<path d="M0 0 C2.92879371 0.62759865 5.36095629 1.58622659 8 3 C8 4.98 8 6.96 8 9 C5.69 8.67 3.38 8.34 1 8 C0.67 5.36 0.34 2.72 0 0 Z " fill="#1B1B1B" transform="translate(127,229)"/>
<path d="M0 0 C2.89932357 2.39509338 3.50168276 4.31245243 4 8 C3.67 8 3.34 8 3 8 C2.67 15.92 2.34 23.84 2 32 C2.99 32.33 3.98 32.66 5 33 C3.68 33 2.36 33 1 33 C0.97494385 32.26885986 0.9498877 31.53771973 0.92407227 30.78442383 C0.80777359 27.46028583 0.68520072 24.13640759 0.5625 20.8125 C0.52318359 19.66201172 0.48386719 18.51152344 0.44335938 17.32617188 C0.40146484 16.21435547 0.35957031 15.10253906 0.31640625 13.95703125 C0.27974854 12.93585205 0.24309082 11.91467285 0.20532227 10.86254883 C0.06862168 8.01075165 0.06862168 8.01075165 -0.58227539 5.31518555 C-1 3 -1 3 0 0 Z " fill="#C1C2C2" transform="translate(108,248)"/>
<path d="M0 0 C5.75 0.875 5.75 0.875 8 2 C8 3.98 8 5.96 8 8 C6.02 8 4.04 8 2 8 C1.34 5.36 0.68 2.72 0 0 Z " fill="#242424" transform="translate(129,239)"/>
<path d="M0 0 C0.33 -0.66 0.66 -1.32 1 -2 C1 -0.35 1 1.3 1 3 C-1.31 2.34 -3.62 1.68 -6 1 C-5.34 3.31 -4.68 5.62 -4 8 C-4.66 8 -5.32 8 -6 8 C-6.66 5.36 -7.32 2.72 -8 0 C-11.63 0.33 -15.26 0.66 -19 1 C-19 0.34 -19 -0.32 -19 -1 C-12.18597425 -2.05268874 -6.63198569 -1.93833398 0 0 Z " fill="#B3B4B4" transform="translate(135,238)"/>
<path d="M0 0 C-2 2 -2 2 -4 2.375 C-6.20265017 2.82123176 -6.20265017 2.82123176 -7.25 5.0625 C-7.4975 5.701875 -7.745 6.34125 -8 7 C-8 5.02 -8 3.04 -8 1 C-11.3 1 -14.6 1 -18 1 C-17.67 0.34 -17.34 -0.32 -17 -1 C-10.82519002 -2.32317357 -6.0381821 -1.69125008 0 0 Z " fill="#E9EAEA" transform="translate(138,248)"/>
<path d="M0 0 C0.66 0 1.32 0 2 0 C2 0.99 2 1.98 2 3 C2.66 3.33 3.32 3.66 4 4 C2.625 5.5 2.625 5.5 1 7 C0.34 7 -0.32 7 -1 7 C-0.67 8.32 -0.34 9.64 0 11 C1.65 11 3.3 11 5 11 C5 11.33 5 11.66 5 12 C2.03 11.67 -0.94 11.34 -4 11 C-4.33 9.35 -4.66 7.7 -5 6 C-4.175 5.566875 -3.35 5.13375 -2.5 4.6875 C-1.2625 3.8521875 -1.2625 3.8521875 0 3 C0 2.01 0 1.02 0 0 Z " fill="#D5D6D6" transform="translate(136,250)"/>
<path d="M0 0 C1.9375 0.75 1.9375 0.75 4 2 C4.75 4.125 4.75 4.125 5 6 C3.02 6 1.04 6 -1 6 C-0.79375 6.61875 -0.5875 7.2375 -0.375 7.875 C-0.25125 8.57625 -0.1275 9.2775 0 10 C-0.66 10.66 -1.32 11.32 -2 12 C-3.25664978 9.09399739 -4 7.20395416 -4 4 C-2.35 4 -0.7 4 1 4 C0.67 2.68 0.34 1.36 0 0 Z " fill="#E2E3E3" transform="translate(124,268)"/>
<path d="M0 0 C2.31 0.33 4.62 0.66 7 1 C5.68 1.33 4.36 1.66 3 2 C3.165 2.515625 3.33 3.03125 3.5 3.5625 C4.15049 6.73363876 4.0620734 9.77218334 4 13 C3.34 13 2.68 13 2 13 C1.66127487 11.58461283 1.32925376 10.16762037 1 8.75 C0.814375 7.96109375 0.62875 7.1721875 0.4375 6.359375 C0 4 0 4 0 0 Z " fill="#E7E7E7" transform="translate(134,228)"/>
<path d="M0 0 C0.66 0 1.32 0 2 0 C0.93533209 2.48422512 0.05665215 3.95042937 -2 5.75 C-4.51066139 8.57449407 -4.76560105 10.53627469 -5.25 14.25 C-5.39953125 15.32765625 -5.5490625 16.4053125 -5.703125 17.515625 C-5.80109375 18.33546875 -5.8990625 19.1553125 -6 20 C-6.33 20 -6.66 20 -7 20 C-7.60028025 13.95273231 -7.86708124 9.36908039 -4.0625 4.375 C-2.7521055 2.85704892 -1.41664104 1.41664104 0 0 Z " fill="#A6A6A6" transform="translate(182,235)"/>
<path d="M0 0 C0.99 0 1.98 0 3 0 C6 5.75 6 5.75 6 8 C5.34 8 4.68 8 4 8 C3.67 8.66 3.34 9.32 3 10 C0 3.375 0 3.375 0 0 Z " fill="#B8B8B9" transform="translate(94,218)"/>
<path d="M0 0 C3 1 3 1 4.1875 3.25 C4.99938294 5.99791147 5.16260121 8.15447889 5 11 C4.34 11 3.68 11 3 11 C0 4.5 0 4.5 0 0 Z " fill="#D7D8D8" transform="translate(98,226)"/>
<path d="M0 0 C2.31 0.33 4.62 0.66 7 1 C7 1.99 7 2.98 7 4 C5.02 3.34 3.04 2.68 1 2 C1.33 4.31 1.66 6.62 2 9 C1.34 9 0.68 9 0 9 C-0.66 6.69 -1.32 4.38 -2 2 C-1.34 2 -0.68 2 0 2 C0 1.34 0 0.68 0 0 Z " fill="#8E8F8F" transform="translate(126,227)"/>
<path d="M0 0 C0.66 0.33 1.32 0.66 2 1 C1.0409375 2.051875 1.0409375 2.051875 0.0625 3.125 C-3.09378067 7.52466396 -3.15552343 11.71220324 -3 17 C-5.32543537 13.71703241 -5.1487755 10.87077028 -4.55859375 6.97265625 C-3.73006587 4.04673612 -2.08730536 2.15463779 0 0 Z " fill="#4F4F4F" transform="translate(281,239)"/>
<path d="M0 0 C1.32 0.33 2.64 0.66 4 1 C4.66 3.31 5.32 5.62 6 8 C4.68 8.33 3.36 8.66 2 9 C1.34 6.03 0.68 3.06 0 0 Z " fill="#D2D3D3" transform="translate(131,220)"/>
<path d="M0 0 C0 0.33 0 0.66 0 1 C-2.97 1 -5.94 1 -9 1 C-9.66 2.32 -10.32 3.64 -11 5 C-11.99 5.495 -11.99 5.495 -13 6 C-12.69542509 3.05577584 -12.16507321 2.14079774 -9.875 0.1875 C-6.20560221 -1.32812083 -3.82518454 -0.8250398 0 0 Z " fill="#434444" transform="translate(198,240)"/>
<path d="M0 0 C2.29633824 3.44450737 2.54016485 5.93812283 3 10 C2.34 9.67 1.68 9.34 1 9 C0.690625 7.845 0.38125 6.69 0.0625 5.5 C-0.288125 4.345 -0.63875 3.19 -1 2 C-1.99 1.67 -2.98 1.34 -4 1 C-2.68 0.67 -1.36 0.34 0 0 Z " fill="#505050" transform="translate(119,272)"/>
<path d="M0 0 C0.66 0 1.32 0 2 0 C1 3 1 3 -1.125 4.1875 C-4.51418301 5.14531259 -7.49471861 5.13746202 -11 5 C-11 4.67 -11 4.34 -11 4 C-10.28972656 3.79503906 -9.57945312 3.59007812 -8.84765625 3.37890625 C-7.92855469 3.10949219 -7.00945312 2.84007812 -6.0625 2.5625 C-4.68771484 2.16224609 -4.68771484 2.16224609 -3.28515625 1.75390625 C-1.0597507 1.20973949 -1.0597507 1.20973949 0 0 Z " fill="#EBECEC" transform="translate(155,257)"/>
<path d="M0 0 C2.475 0.495 2.475 0.495 5 1 C4.1875 2.9375 4.1875 2.9375 3 5 C2.01 5.33 1.02 5.66 0 6 C0 4.02 0 2.04 0 0 Z " fill="#424242" transform="translate(132,250)"/>
<path d="M0 0 C0.70125 0.01417969 1.4025 0.02835938 2.125 0.04296875 C3.176875 0.05263672 3.176875 0.05263672 4.25 0.0625 C6.125 0.23046875 6.125 0.23046875 8.125 1.23046875 C8.125 1.89046875 8.125 2.55046875 8.125 3.23046875 C4.165 2.90046875 0.205 2.57046875 -3.875 2.23046875 C-1.875 0.23046875 -1.875 0.23046875 0 0 Z " fill="#464747" transform="translate(286.875,236.76953125)"/>
<path d="M0 0 C1.65 0 3.3 0 5 0 C4.01 0.33 3.02 0.66 2 1 C2.99 3.97 3.98 6.94 5 10 C4.01 9.67 3.02 9.34 2 9 C1.26953125 6.93359375 1.26953125 6.93359375 0.8125 4.4375 C0.65394531 3.61121094 0.49539062 2.78492188 0.33203125 1.93359375 C0.16767578 0.97646484 0.16767578 0.97646484 0 0 Z " fill="#A8A8A8" transform="translate(121,219)"/>
<path d="M0 0 C-0.66 1.65 -1.32 3.3 -2 5 C-2.33 4.01 -2.66 3.02 -3 2 C-5.31 2 -7.62 2 -10 2 C-6.86358686 -1.13641314 -4.14410883 -1.38136961 0 0 Z " fill="#A9A9A9" transform="translate(152,239)"/>
<path d="M0 0 C0.99 0.33 1.98 0.66 3 1 C3 1.99 3 2.98 3 4 C5.31 4.33 7.62 4.66 10 5 C10 5.33 10 5.66 10 6 C7.03 5.67 4.06 5.34 1 5 C0.67 3.35 0.34 1.7 0 0 Z " fill="#F9F9F9" transform="translate(131,256)"/>
<path d="M0 0 C3.82097239 0.53069061 6.06171403 1.49701566 9 4 C6.69 4 4.38 4 2 4 C1.67 4.99 1.34 5.98 1 7 C0.67 4.69 0.34 2.38 0 0 Z " fill="#313131" transform="translate(139,238)"/>
<path d="M0 0 C2.33944736 0.28730055 4.6739143 0.61936779 7 1 C7 1.33 7 1.66 7 2 C5.35 2 3.7 2 2 2 C1.67 2.99 1.34 3.98 1 5 C0.34 3.68 -0.32 2.36 -1 1 C-0.67 0.67 -0.34 0.34 0 0 Z " fill="#EFF0F0" transform="translate(134,228)"/>
<path d="M0 0 C0.94875 0.350625 1.8975 0.70125 2.875 1.0625 C2.875 1.3925 2.875 1.7225 2.875 2.0625 C-0.095 2.7225 -3.065 3.3825 -6.125 4.0625 C-5.795 2.7425 -5.465 1.4225 -5.125 0.0625 C-3.125 -0.9375 -3.125 -0.9375 0 0 Z " fill="#B6B7B7" transform="translate(108.125,218.9375)"/>
<path d="M0 0 C0.66 0 1.32 0 2 0 C2.33 1.98 2.66 3.96 3 6 C0.03 5.505 0.03 5.505 -3 5 C-2 3 -2 3 0 0 Z " fill="#B5B6B6" transform="translate(123,278)"/>
<path d="M0 0 C1.98 0.495 1.98 0.495 4 1 C4 2.65 4 4.3 4 6 C2.35 6 0.7 6 -1 6 C-0.01 5.67 0.98 5.34 2 5 C1.34 3.35 0.68 1.7 0 0 Z " fill="#A2A2A2" transform="translate(121,266)"/>
<path d="M0 0 C0.66 0.33 1.32 0.66 2 1 C1.0479279 2.00596297 0.08812654 3.00461563 -0.875 4 C-1.40867187 4.556875 -1.94234375 5.11375 -2.4921875 5.6875 C-4 7 -4 7 -6 7 C-4.60667426 3.63279613 -3.0210714 2.0140476 0 0 Z " fill="#B1B1B1" transform="translate(280,233)"/>
</svg>
