<svg xmlns="http://www.w3.org/2000/svg" width="500" height="500" viewBox="0 0 500 500">
<g>
<path d="M 0.00 0.00 L 500.00 0.00 L 500.00 500.00 L 0.00 500.00 ZM 136.50 263.14 C142.93,264.27 150.07,263.12 155.50,260.08 L 160.50 257.27 L 161.23 250.88 C161.92,244.87 161.27,223.34 160.35,221.79 C160.12,221.40 157.10,222.63 153.63,224.54 C149.10,227.03 146.10,228.00 142.92,227.98 C137.60,227.97 136.51,227.34 135.64,223.76 C134.56,219.34 128.17,216.66 118.83,216.70 C110.60,216.74 102.01,219.37 102.00,221.87 C102.00,222.71 102.67,223.02 103.75,222.68 C116.46,218.69 122.20,218.45 129.83,221.59 C132.79,222.81 133.12,223.34 132.86,226.37 C132.70,228.24 133.16,230.49 133.88,231.36 C134.61,232.23 135.20,234.57 135.20,236.55 C135.20,238.53 135.81,241.34 136.56,242.78 C138.78,247.06 135.54,249.01 131.42,245.87 C130.83,245.41 128.91,245.59 127.15,246.25 C124.83,247.13 123.48,247.16 122.23,246.38 C120.86,245.51 119.77,245.90 116.79,248.29 C112.16,252.01 112.74,253.35 118.15,251.45 C120.41,250.65 123.99,250.00 126.13,250.00 L 130.00 250.00 L 130.00 255.44 C130.00,261.47 130.51,262.08 136.50,263.14 ZM 382.63 275.47 C383.00,276.44 384.13,276.98 385.38,276.80 C387.19,276.54 387.54,275.72 387.81,271.16 C388.07,266.57 388.35,265.93 389.81,266.59 C390.74,267.01 393.65,267.54 396.27,267.78 C400.73,268.17 401.29,267.94 405.02,264.22 C408.73,260.50 409.00,259.85 409.00,254.52 C409.00,249.37 408.67,248.47 405.66,245.46 C401.60,241.40 397.90,240.35 392.63,241.75 C390.33,242.37 387.72,242.46 386.45,241.98 C382.51,240.48 382.00,242.41 382.00,258.62 C382.00,266.99 382.28,274.57 382.63,275.47 ZM 334.64 264.93 C335.14,267.44 335.71,268.04 337.39,267.80 C339.32,267.53 339.54,266.71 340.02,258.16 C340.57,248.19 341.74,246.00 346.50,246.00 C351.17,246.00 352.26,248.08 352.60,257.59 C352.77,262.49 352.93,266.87 352.96,267.32 C352.98,267.77 354.01,268.00 355.25,267.82 C357.36,267.52 357.53,266.90 358.02,258.16 C358.58,247.96 359.71,246.00 364.99,246.00 C369.23,246.00 370.00,247.68 370.02,256.95 C370.03,266.25 370.74,268.39 373.62,267.84 C375.27,267.52 375.54,266.36 375.79,258.55 C376.13,248.31 374.99,244.56 370.91,242.45 C367.28,240.57 363.62,240.61 359.49,242.57 C356.48,244.00 355.90,244.00 353.14,242.57 C349.52,240.70 346.04,240.57 342.52,242.17 C340.71,243.00 339.63,243.03 338.89,242.29 C338.31,241.71 336.97,241.46 335.92,241.73 C334.19,242.18 334.00,243.22 334.00,251.99 C334.00,257.36 334.29,263.18 334.64,264.93 ZM 147.78 259.44 C145.60,260.97 141.99,261.34 139.00,260.34 C138.18,260.07 136.86,259.64 136.08,259.39 C135.06,259.06 135.75,257.82 138.47,255.03 L 142.28 251.13 L 140.14 242.13 C138.96,237.18 138.00,232.65 138.00,232.07 C138.00,231.44 140.27,231.00 143.48,231.00 C147.19,231.00 150.01,230.36 152.23,229.00 C154.03,227.91 156.02,227.01 156.65,227.00 C158.08,227.00 158.27,243.94 156.86,245.66 C156.24,246.41 156.28,247.05 156.95,247.47 C157.53,247.83 158.00,249.67 158.00,251.57 C158.00,254.38 157.41,255.39 154.82,256.96 C153.07,258.03 151.27,258.67 150.82,258.39 C150.37,258.11 149.00,258.59 147.78,259.44 ZM 183.91 265.72 C191.38,270.75 208.79,266.84 206.42,260.66 C205.49,258.24 202.19,257.65 199.49,259.42 C196.44,261.42 191.09,261.45 188.30,259.50 C183.30,256.00 182.93,245.77 187.67,242.04 C190.82,239.57 196.64,239.36 199.85,241.61 C202.00,243.12 202.29,243.08 204.57,240.93 C205.91,239.68 207.00,238.29 207.00,237.85 C207.00,236.15 198.82,232.96 194.25,232.88 C183.04,232.69 175.98,239.39 176.02,250.20 C176.04,256.60 178.99,262.40 183.91,265.72 ZM 243.00 233.00 L 243.00 268.12 L 250.50 267.50 L 250.80 261.29 L 251.09 255.09 L 258.30 254.79 L 265.50 254.50 L 265.50 248.50 L 251.00 247.91 L 251.00 240.08 L 259.25 239.79 L 267.50 239.50 L 268.13 233.00 ZM 120.00 285.25 C120.00,286.31 121.79,286.18 124.07,284.96 C126.10,283.87 126.72,279.57 125.00,278.50 C123.29,277.44 123.90,275.00 125.88,275.00 C126.91,275.00 128.32,274.33 129.00,273.50 C130.56,271.63 130.22,271.21 120.64,263.05 C112.60,256.21 112.82,256.59 103.49,234.01 C100.43,226.59 97.50,220.10 96.98,219.58 C94.05,216.65 95.53,222.00 102.39,239.05 L 110.07 258.16 L 109.40 269.43 C108.65,281.97 109.39,283.86 113.52,279.99 L 115.88 277.76 L 117.94 281.13 C119.07,282.98 119.99,284.84 120.00,285.25 ZM 307.45 265.55 C309.31,267.40 310.96,268.00 314.20,267.98 C316.57,267.98 319.13,267.57 319.91,267.08 C320.77,266.53 321.99,266.60 323.03,267.25 C323.97,267.84 325.47,268.03 326.37,267.69 C327.70,267.18 328.00,265.51 328.00,258.68 C328.00,254.07 327.50,248.87 326.89,247.12 C324.93,241.48 316.92,239.33 309.47,242.45 C305.81,243.98 305.46,244.60 306.94,246.94 C307.69,248.12 308.34,248.17 310.48,247.19 C314.09,245.55 319.50,245.70 320.99,247.49 C323.10,250.03 321.43,252.00 317.18,252.00 C311.49,252.00 307.00,253.87 305.93,256.69 C304.44,260.61 304.84,262.93 307.45,265.55 ZM 220.67 267.33 C221.92,268.58 227.06,268.01 227.62,266.55 C227.92,265.75 228.25,259.57 228.34,252.80 L 228.50 240.50 L 233.50 240.00 C238.29,239.52 238.51,239.36 238.81,236.25 L 239.13 233.00 L 224.62 233.00 C215.51,233.00 209.88,233.39 209.46,234.06 C209.11,234.64 209.09,236.21 209.42,237.56 C209.97,239.74 210.57,240.00 215.02,240.00 L 220.00 240.00 L 220.00 253.33 C220.00,260.67 220.30,266.97 220.67,267.33 ZM 283.62 267.53 C285.76,268.29 287.95,268.93 288.50,268.95 C291.40,269.06 296.94,266.69 299.07,264.42 C301.43,261.92 301.44,261.80 299.61,260.45 C297.96,259.25 297.36,259.32 294.95,261.03 C290.59,264.14 285.64,263.61 281.24,259.58 C277.71,256.35 277.50,255.81 277.50,250.10 C277.50,244.89 277.87,243.68 280.13,241.41 C283.56,237.98 290.33,237.08 294.91,239.45 C297.44,240.76 298.46,240.87 299.57,239.94 C301.70,238.17 301.34,237.18 297.75,234.99 C293.27,232.26 283.72,232.26 279.24,234.99 C266.81,242.58 269.49,262.49 283.62,267.53 ZM 401.51 259.81 C396.04,266.31 388.55,262.80 388.55,253.72 C388.55,243.83 402.06,243.23 403.63,253.06 C404.09,255.95 403.70,257.21 401.51,259.81 ZM 115.40 274.50 C114.35,275.29 113.16,275.95 112.75,275.97 C111.67,276.01 111.82,262.23 112.90,261.56 C113.40,261.25 115.96,262.95 118.58,265.32 L 123.36 269.64 L 121.14 271.86 C119.92,273.08 118.56,273.85 118.11,273.57 C117.66,273.29 116.44,273.71 115.40,274.50 ZM 319.83 262.40 C315.80,265.23 311.00,263.64 311.00,259.50 C311.00,257.55 311.65,256.97 314.40,256.45 C316.27,256.10 318.63,255.97 319.65,256.17 C322.42,256.70 322.53,260.52 319.83,262.40 ZM 135.80 253.80 C133.95,255.65 133.00,255.24 133.00,252.59 C133.00,250.68 133.41,250.29 135.00,250.71 C137.30,251.31 137.50,252.10 135.80,253.80 ZM 141.50 240.00 C141.16,240.55 141.78,241.00 142.88,241.00 C143.98,241.00 145.16,240.55 145.50,240.00 C145.84,239.45 145.22,239.00 144.12,239.00 C143.02,239.00 141.84,239.45 141.50,240.00 Z" fill="rgb(0,0,0)"/>
<path d="M 122.52 279.07 C122.89,280.76 122.96,282.37 122.68,282.66 C122.04,283.30 119.44,279.28 118.54,276.25 C118.12,274.84 117.12,274.03 116.15,274.01 C116.97,273.55 117.77,273.36 118.11,273.57 C118.56,273.85 119.92,273.08 121.14,271.86 L 123.36 269.64 L 118.58 265.32 C117.72,264.55 116.87,263.84 116.10,263.26 C116.83,263.77 117.63,264.38 118.44,265.05 C121.07,267.22 123.62,269.00 124.11,269.00 C124.60,269.00 125.00,269.67 125.00,270.50 C125.00,271.43 124.06,272.00 122.50,272.00 C120.67,272.00 120.00,272.53 120.00,274.00 C120.00,275.10 120.41,276.00 120.92,276.00 C121.43,276.00 122.14,277.38 122.52,279.07 ZM 141.50 240.00 C141.84,239.45 143.02,239.00 144.12,239.00 C145.22,239.00 145.84,239.45 145.50,240.00 C145.16,240.55 143.98,241.00 142.88,241.00 C141.78,241.00 141.16,240.55 141.50,240.00 ZM 112.02 268.98 C111.99,265.50 112.26,261.96 112.83,261.61 C112.84,261.60 112.85,261.59 112.86,261.59 C112.35,262.07 112.06,265.56 112.02,268.98 ZM 114.33 275.23 C113.96,275.67 113.38,276.00 112.94,276.00 C112.90,276.00 112.87,275.99 112.83,275.96 C113.14,275.90 113.70,275.62 114.33,275.23 Z" fill="rgb(87,87,87)"/>
<path d="M 120.00 285.25 C119.99,284.84 119.07,282.98 117.94,281.13 L 115.88 277.76 L 113.52 279.99 C109.39,283.86 108.65,281.97 109.40,269.43 L 110.07 258.16 L 102.39 239.05 C95.53,222.00 94.05,216.65 96.98,219.58 C97.50,220.10 100.43,226.59 103.49,234.01 C112.82,256.59 112.60,256.21 120.64,263.05 C130.22,271.21 130.56,271.63 129.00,273.50 C128.32,274.33 126.91,275.00 125.88,275.00 C123.90,275.00 123.29,277.44 125.00,278.50 C126.72,279.57 126.10,283.87 124.07,284.96 C121.79,286.18 120.00,286.31 120.00,285.25 ZM 122.52 279.07 C122.14,277.38 121.43,276.00 120.92,276.00 C120.41,276.00 120.00,275.10 120.00,274.00 C120.00,272.53 120.67,272.00 122.50,272.00 C124.06,272.00 125.00,271.43 125.00,270.50 C125.00,269.67 124.60,269.00 124.11,269.00 C123.62,269.00 121.07,267.22 118.44,265.05 C115.81,262.87 113.28,261.33 112.83,261.61 C111.68,262.32 111.78,276.00 112.94,276.00 C113.46,276.00 114.16,275.55 114.50,275.00 C115.59,273.23 117.84,273.93 118.54,276.25 C119.44,279.28 122.04,283.30 122.68,282.66 C122.96,282.37 122.89,280.76 122.52,279.07 ZM 382.63 275.47 C382.28,274.57 382.00,266.99 382.00,258.62 C382.00,242.41 382.51,240.48 386.45,241.98 C387.72,242.46 390.33,242.37 392.63,241.75 C397.90,240.35 401.60,241.40 405.66,245.46 C408.67,248.47 409.00,249.37 409.00,254.52 C409.00,259.85 408.73,260.50 405.02,264.22 C401.29,267.94 400.73,268.17 396.27,267.78 C393.65,267.54 390.74,267.01 389.81,266.59 C388.35,265.93 388.07,266.57 387.81,271.16 C387.54,275.72 387.19,276.54 385.38,276.80 C384.13,276.98 383.00,276.44 382.63,275.47 ZM 401.51 259.81 C403.70,257.21 404.09,255.95 403.63,253.06 C402.06,243.23 388.55,243.83 388.55,253.72 C388.55,262.80 396.04,266.31 401.51,259.81 ZM 283.62 267.53 C269.49,262.49 266.81,242.58 279.24,234.99 C283.72,232.26 293.27,232.26 297.75,234.99 C301.34,237.18 301.70,238.17 299.57,239.94 C298.46,240.87 297.44,240.76 294.91,239.45 C290.33,237.08 283.56,237.98 280.13,241.41 C277.87,243.68 277.50,244.89 277.50,250.10 C277.50,255.81 277.71,256.35 281.24,259.58 C285.64,263.61 290.59,264.14 294.95,261.03 C297.36,259.32 297.96,259.25 299.61,260.45 C301.44,261.80 301.43,261.92 299.07,264.42 C296.94,266.69 291.40,269.06 288.50,268.95 C287.95,268.93 285.76,268.29 283.62,267.53 ZM 183.91 265.72 C178.99,262.40 176.04,256.60 176.02,250.20 C175.98,239.39 183.04,232.69 194.25,232.88 C198.82,232.96 207.00,236.15 207.00,237.85 C207.00,238.29 205.91,239.68 204.57,240.93 C202.29,243.08 202.00,243.12 199.85,241.61 C196.64,239.36 190.82,239.57 187.67,242.04 C182.93,245.77 183.30,256.00 188.30,259.50 C191.09,261.45 196.44,261.42 199.49,259.42 C202.19,257.65 205.49,258.24 206.42,260.66 C208.79,266.84 191.38,270.75 183.91,265.72 ZM 220.67 267.33 C220.30,266.97 220.00,260.67 220.00,253.33 L 220.00 240.00 L 215.02 240.00 C210.57,240.00 209.97,239.74 209.42,237.56 C209.09,236.21 209.11,234.64 209.46,234.06 C209.88,233.39 215.51,233.00 224.62,233.00 L 239.13 233.00 L 238.81 236.25 C238.51,239.36 238.29,239.52 233.50,240.00 L 228.50 240.50 L 228.34 252.80 C228.25,259.57 227.92,265.75 227.62,266.55 C227.06,268.01 221.92,268.58 220.67,267.33 ZM 243.00 250.56 L 243.00 233.00 L 255.56 233.00 L 268.13 233.00 L 267.81 236.25 L 267.50 239.50 L 259.25 239.79 L 251.00 240.08 L 251.00 244.00 L 251.00 247.91 L 258.25 248.21 L 265.50 248.50 L 265.50 251.50 L 265.50 254.50 L 258.30 254.79 L 251.09 255.09 L 250.80 261.29 L 250.50 267.50 L 246.75 267.81 L 243.00 268.12 L 243.00 250.56 ZM 307.45 265.55 C304.84,262.93 304.44,260.61 305.93,256.69 C307.00,253.87 311.49,252.00 317.18,252.00 C321.43,252.00 323.10,250.03 320.99,247.49 C319.50,245.70 314.09,245.55 310.48,247.19 C308.34,248.17 307.69,248.12 306.94,246.94 C305.46,244.60 305.81,243.98 309.47,242.45 C316.92,239.33 324.93,241.48 326.89,247.12 C327.50,248.87 328.00,254.07 328.00,258.68 C328.00,265.51 327.70,267.18 326.37,267.69 C325.47,268.03 323.97,267.84 323.03,267.25 C321.99,266.60 320.77,266.53 319.91,267.08 C319.13,267.57 316.57,267.98 314.20,267.98 C310.96,268.00 309.31,267.40 307.45,265.55 ZM 319.83 262.40 C322.53,260.52 322.42,256.70 319.65,256.17 C318.63,255.97 316.27,256.10 314.40,256.45 C311.65,256.97 311.00,257.55 311.00,259.50 C311.00,263.64 315.80,265.23 319.83,262.40 ZM 334.64 264.93 C334.29,263.18 334.00,257.36 334.00,251.99 C334.00,243.22 334.19,242.18 335.92,241.73 C336.97,241.46 338.31,241.71 338.89,242.29 C339.63,243.03 340.71,243.00 342.52,242.17 C346.04,240.57 349.52,240.70 353.14,242.57 C355.90,244.00 356.48,244.00 359.49,242.57 C363.62,240.61 367.28,240.57 370.91,242.45 C374.99,244.56 376.13,248.31 375.79,258.55 C375.54,266.36 375.27,267.52 373.62,267.84 C370.74,268.39 370.03,266.25 370.02,256.95 C370.00,247.68 369.23,246.00 364.99,246.00 C359.71,246.00 358.58,247.96 358.02,258.16 C357.53,266.90 357.36,267.52 355.25,267.82 C354.01,268.00 352.98,267.77 352.96,267.32 C352.93,266.87 352.77,262.49 352.60,257.59 C352.26,248.08 351.17,246.00 346.50,246.00 C341.74,246.00 340.57,248.19 340.02,258.16 C339.54,266.71 339.32,267.53 337.39,267.80 C335.71,268.04 335.14,267.44 334.64,264.93 ZM 136.50 263.14 C130.51,262.08 130.00,261.47 130.00,255.44 L 130.00 250.00 L 126.13 250.00 C123.99,250.00 120.41,250.65 118.15,251.45 C112.74,253.35 112.16,252.01 116.79,248.29 C119.77,245.90 120.86,245.51 122.23,246.38 C123.48,247.16 124.83,247.13 127.15,246.25 C128.91,245.59 130.83,245.41 131.42,245.87 C135.54,249.01 138.78,247.06 136.56,242.78 C135.81,241.34 135.20,238.53 135.20,236.55 C135.20,234.57 134.61,232.23 133.88,231.36 C133.16,230.49 132.70,228.24 132.86,226.37 C133.12,223.34 132.79,222.81 129.83,221.59 C122.20,218.45 116.46,218.69 103.75,222.68 C102.67,223.02 102.00,222.71 102.00,221.87 C102.01,219.37 110.60,216.74 118.83,216.70 C128.17,216.66 134.56,219.34 135.64,223.76 C136.51,227.34 137.60,227.97 142.92,227.98 C146.10,228.00 149.10,227.03 153.63,224.54 C157.10,222.63 160.12,221.40 160.35,221.79 C161.27,223.34 161.92,244.87 161.23,250.88 L 160.50 257.27 L 155.50 260.08 C150.07,263.12 142.93,264.27 136.50,263.14 ZM 147.78 259.44 C149.00,258.59 150.37,258.11 150.82,258.39 C151.27,258.67 153.07,258.03 154.82,256.96 C157.41,255.39 158.00,254.38 158.00,251.57 C158.00,249.67 157.53,247.83 156.95,247.47 C156.28,247.05 156.24,246.41 156.86,245.66 C158.27,243.94 158.08,227.00 156.65,227.00 C156.02,227.01 154.03,227.91 152.23,229.00 C150.01,230.36 147.19,231.00 143.48,231.00 C140.27,231.00 138.00,231.44 138.00,232.07 C138.00,232.65 138.96,237.18 140.14,242.13 L 142.28 251.13 L 138.47 255.03 C135.75,257.82 135.06,259.06 136.08,259.39 C136.86,259.64 138.18,260.07 139.00,260.34 C141.99,261.34 145.60,260.97 147.78,259.44 ZM 135.80 253.80 C137.50,252.10 137.30,251.31 135.00,250.71 C133.41,250.29 133.00,250.68 133.00,252.59 C133.00,255.24 133.95,255.65 135.80,253.80 Z" fill="rgb(242,242,242)"/>
</g>
</svg>